<svg width="120" height="120" viewBox="0 0 120 120" fill="none" xmlns="http://www.w3.org/2000/svg">
<mask id="path-1-inside-1_203_11" fill="white">
<path d="M95.7214 37.6235C91.171 36.8669 87.1202 34.3019 84.4905 30.5121L76.3605 18.7956C75.4531 17.4906 74.247 16.4201 72.8422 15.6729C71.4374 14.9256 69.8743 14.5232 68.2825 14.4988L45.0478 14.1662H44.9998C33.0043 14.1662 23.8006 16.168 17.8729 25.9374C12.3542 35.0311 10 50.5217 10 77.7329V77.7329C10 79.5696 11.4889 81.0584 13.3255 81.0584H13.4373C15.6017 81.0584 17.2275 83.0349 16.81 85.1587L13.4949 102.024C13.09 104.083 14.6665 106 16.7654 106V106C18.3583 106 19.7286 104.873 20.0358 103.31L23.9744 83.2729C24.2273 81.9863 25.3553 81.0584 26.6666 81.0584V81.0584C32.1107 81.1069 37.3554 79.0172 41.2682 75.2404C44.8055 71.8637 47.3569 67.2442 48.6471 61.8813L48.6588 61.8331L56.8104 20.8882H50L42.1534 60.3752C40.5051 67.1677 35.5761 74.4074 26.6666 74.4074V74.4074C21.1631 74.4074 16.6882 69.9182 16.8961 64.4186C17.5617 46.8099 19.6961 35.7751 23.576 29.3808C27.4093 23.0623 33.0124 20.8194 44.9767 20.8163L68.1866 21.1488C68.7172 21.1569 69.2383 21.291 69.7066 21.5401C70.1749 21.7892 70.5769 22.146 70.8793 22.5811L81.1521 37.3842C83.4388 40.6793 86.961 42.9095 90.9174 43.5674L100.2 45.1109C102.008 45.4115 103.333 46.9752 103.333 48.8076V48.8076C103.333 49.0399 103.311 49.2716 103.268 49.4998L100.23 65.6641C99.3148 70.5362 97.7496 72.9905 91.3309 73.7597L77.4496 76.1291C70.258 77.3566 64.9839 83.5675 64.9382 90.863L64.8643 102.646C64.8527 104.495 66.3485 106 68.1975 106V106C70.0303 106 71.5192 104.52 71.5307 102.688L71.5853 93.9939C71.6221 88.135 75.8572 83.1469 81.6326 82.1604L92.2113 80.3532C96.8696 79.7819 100.306 78.2841 102.717 75.7758C104.777 73.6313 106.031 70.8914 106.783 66.89L109.821 50.7265C109.94 50.0935 110 49.4507 110 48.8066V48.8066C110 43.7238 106.324 39.3864 101.31 38.5527L95.7214 37.6235Z"/>
</mask>
<path d="M95.7214 37.6235C91.171 36.8669 87.1202 34.3019 84.4905 30.5121L76.3605 18.7956C75.4531 17.4906 74.247 16.4201 72.8422 15.6729C71.4374 14.9256 69.8743 14.5232 68.2825 14.4988L45.0478 14.1662H44.9998C33.0043 14.1662 23.8006 16.168 17.8729 25.9374C12.3542 35.0311 10 50.5217 10 77.7329V77.7329C10 79.5696 11.4889 81.0584 13.3255 81.0584H13.4373C15.6017 81.0584 17.2275 83.0349 16.81 85.1587L13.4949 102.024C13.09 104.083 14.6665 106 16.7654 106V106C18.3583 106 19.7286 104.873 20.0358 103.31L23.9744 83.2729C24.2273 81.9863 25.3553 81.0584 26.6666 81.0584V81.0584C32.1107 81.1069 37.3554 79.0172 41.2682 75.2404C44.8055 71.8637 47.3569 67.2442 48.6471 61.8813L48.6588 61.8331L56.8104 20.8882H50L42.1534 60.3752C40.5051 67.1677 35.5761 74.4074 26.6666 74.4074V74.4074C21.1631 74.4074 16.6882 69.9182 16.8961 64.4186C17.5617 46.8099 19.6961 35.7751 23.576 29.3808C27.4093 23.0623 33.0124 20.8194 44.9767 20.8163L68.1866 21.1488C68.7172 21.1569 69.2383 21.291 69.7066 21.5401C70.1749 21.7892 70.5769 22.146 70.8793 22.5811L81.1521 37.3842C83.4388 40.6793 86.961 42.9095 90.9174 43.5674L100.2 45.1109C102.008 45.4115 103.333 46.9752 103.333 48.8076V48.8076C103.333 49.0399 103.311 49.2716 103.268 49.4998L100.23 65.6641C99.3148 70.5362 97.7496 72.9905 91.3309 73.7597L77.4496 76.1291C70.258 77.3566 64.9839 83.5675 64.9382 90.863L64.8643 102.646C64.8527 104.495 66.3485 106 68.1975 106V106C70.0303 106 71.5192 104.52 71.5307 102.688L71.5853 93.9939C71.6221 88.135 75.8572 83.1469 81.6326 82.1604L92.2113 80.3532C96.8696 79.7819 100.306 78.2841 102.717 75.7758C104.777 73.6313 106.031 70.8914 106.783 66.89L109.821 50.7265C109.94 50.0935 110 49.4507 110 48.8066V48.8066C110 43.7238 106.324 39.3864 101.31 38.5527L95.7214 37.6235Z" fill="#EAB344"/>
<path d="M76.3605 18.7956L87.0412 11.3845L87.0338 11.3739L76.3605 18.7956ZM68.2825 14.4988L68.4815 1.5003L68.4685 1.50011L68.2825 14.4988ZM45.0478 14.1662L45.2338 1.16756L45.1408 1.16623H45.0478V14.1662ZM17.8729 25.9374L28.9864 32.6819L28.987 32.681L17.8729 25.9374ZM41.2682 75.2404L32.2918 65.837L32.2657 65.8619L32.2399 65.8869L41.2682 75.2404ZM48.6471 61.8813L36.0114 58.8253L36.0096 58.8329L36.0078 58.8405L48.6471 61.8813ZM48.6588 61.8331L61.2945 64.889L61.3568 64.6314L61.4086 64.3714L48.6588 61.8331ZM56.8104 20.8882L69.5602 23.4266L72.6537 7.88825L56.8104 7.88825V20.8882ZM50 20.8882V7.88825H39.3291L37.2493 18.3545L50 20.8882ZM42.1534 60.3752L54.7867 63.441L54.851 63.1762L54.9041 62.909L42.1534 60.3752ZM23.576 29.3808L34.69 36.1245L34.6905 36.1237L23.576 29.3808ZM44.9767 20.8163L45.163 7.81761L45.0682 7.81625L44.9733 7.81627L44.9767 20.8163ZM68.1866 21.1488L68.384 8.15032L68.3729 8.15016L68.1866 21.1488ZM70.8793 22.5811L81.5595 15.1694L81.5535 15.1608L70.8793 22.5811ZM100.23 65.6641L87.4541 63.2628L87.4541 63.263L100.23 65.6641ZM91.3309 73.7597L89.784 60.8521L89.4627 60.8906L89.1436 60.9451L91.3309 73.7597ZM92.2113 80.3532L90.6286 67.4499L90.3244 67.4872L90.0223 67.5389L92.2113 80.3532ZM102.717 75.7758L112.091 84.7831L112.091 84.7825L102.717 75.7758ZM106.783 66.89L119.559 69.2913L119.559 69.291L106.783 66.89ZM101.31 38.5527L99.1776 51.3767L101.31 38.5527ZM109.821 50.7265L97.0444 48.3254L109.821 50.7265ZM103.268 49.4998L116.045 51.9011L103.268 49.4998ZM81.1521 37.3842L70.4719 44.7959L81.1521 37.3842ZM81.6326 82.1604L79.4435 69.346L81.6326 82.1604ZM26.6666 81.0584L26.7824 68.059L26.7245 68.0584H26.6666V81.0584ZM84.4905 30.5121L95.1711 23.101L95.1711 23.101L84.4905 30.5121ZM71.5307 102.688L58.531 102.606L71.5307 102.688ZM20.0358 103.31L7.27995 100.802L20.0358 103.31ZM77.4496 76.1291L75.2624 63.3144L77.4496 76.1291ZM64.9382 90.863L51.9385 90.7815L64.9382 90.863ZM16.81 85.1587L4.05413 82.6513L16.81 85.1587ZM64.8643 102.646L77.8641 102.727L64.8643 102.646ZM95.1711 23.101L87.0412 11.3845L65.6799 26.2067L73.8099 37.9232L95.1711 23.101ZM87.0338 11.3739C84.946 8.37144 82.1732 5.91149 78.9471 4.1955L66.7373 27.1502C66.3208 26.9287 65.9602 26.6097 65.6873 26.2173L87.0338 11.3739ZM78.9471 4.1955C75.7211 2.47958 72.1336 1.55622 68.4815 1.50031L68.0835 27.4973C67.615 27.4901 67.1536 27.3717 66.7373 27.1502L78.9471 4.1955ZM68.4685 1.50011L45.2338 1.16756L44.8617 27.1649L68.0964 27.4975L68.4685 1.50011ZM45.0478 1.16623H44.9998V27.1662H45.0478V1.16623ZM44.9998 1.16623C38.4982 1.16623 31.3139 1.66926 24.5526 4.23247C17.3305 6.9704 11.2438 11.8019 6.75876 19.1938L28.987 32.681C30.4296 30.3034 31.9087 29.2494 33.7692 28.5441C36.0905 27.6641 39.5059 27.1662 44.9998 27.1662V1.16623ZM6.75932 19.1929C-0.881028 31.7825 -3 50.8091 -3 77.7329H23C23 50.2342 25.5893 38.2796 28.9864 32.6819L6.75932 19.1929ZM13.3255 94.0584H13.4373V68.0584H13.3255V94.0584ZM4.05413 82.6513L0.738962 99.5167L26.2508 104.531L29.5659 87.6661L4.05413 82.6513ZM32.7917 105.817L36.7303 85.7803L11.2185 80.7656L7.27995 100.802L32.7917 105.817ZM26.5508 94.0579C35.3987 94.1367 43.9284 90.7407 50.2965 84.594L32.2399 65.8869C30.7824 67.2936 28.8226 68.0771 26.7824 68.059L26.5508 94.0579ZM50.2446 84.6438C55.8134 79.3278 59.4891 72.393 61.2865 64.9221L36.0078 58.8405C35.2247 62.0953 33.7975 64.3997 32.2918 65.837L50.2446 84.6438ZM61.2828 64.9373L61.2945 64.889L36.0231 58.7771L36.0114 58.8253L61.2828 64.9373ZM61.4086 64.3714L69.5602 23.4266L44.0606 18.3499L35.909 59.2948L61.4086 64.3714ZM56.8104 7.88825H50V33.8882H56.8104V7.88825ZM37.2493 18.3545L29.4027 57.8415L54.9041 62.909L62.7507 23.422L37.2493 18.3545ZM29.5201 57.3095C29.1036 59.0258 28.3643 60.3006 27.7538 60.9367C27.4949 61.2065 27.3291 61.2923 27.27 61.3189C27.2365 61.334 27.0822 61.4074 26.6666 61.4074V87.4074C44.3698 87.4074 52.5115 72.817 54.7867 63.441L29.5201 57.3095ZM29.8868 64.9097C30.5518 47.3165 32.7202 39.371 34.69 36.1245L12.4619 22.6371C6.672 32.1792 4.57154 46.3033 3.90539 63.9276L29.8868 64.9097ZM34.6905 36.1237C35.0892 35.4666 35.3444 35.223 35.4327 35.1455C35.5007 35.0857 35.6465 34.964 36.0576 34.7995C37.1274 34.3714 39.5457 33.8177 44.9801 33.8163L44.9733 7.81627C38.4434 7.81798 32.0781 8.38726 26.3969 10.661C20.1149 13.1751 15.6694 17.3501 12.4615 22.6378L34.6905 36.1237ZM44.7905 33.8149L68.0004 34.1475L68.3729 8.15016L45.163 7.81761L44.7905 33.8149ZM67.9893 34.1473C66.4591 34.1241 64.955 33.7373 63.6017 33.0175L75.8115 10.0627C73.5215 8.84468 70.9754 8.18967 68.384 8.15032L67.9893 34.1473ZM63.6017 33.0175C62.2481 32.2975 61.0831 31.2644 60.2051 30.0014L81.5535 15.1608C80.0707 13.0277 78.1016 11.2809 75.8115 10.0627L63.6017 33.0175ZM60.1991 29.9928L70.4719 44.7959L91.8323 29.9725L81.5595 15.1694L60.1991 29.9928ZM88.785 56.3913L98.0678 57.9349L102.333 32.287L93.0499 30.7434L88.785 56.3913ZM90.4922 47.0986L87.4541 63.2628L113.007 68.0654L116.045 51.9011L90.4922 47.0986ZM87.4541 63.263C87.2974 64.0968 87.2199 64.211 87.3081 63.9935C87.4361 63.6777 87.8128 62.9039 88.6148 62.0954C89.4273 61.2763 90.2167 60.8843 90.5815 60.7422C90.8537 60.6361 90.7003 60.7423 89.784 60.8521L92.8778 86.6674C97.3098 86.1362 102.759 84.7558 107.074 80.4056C111.267 76.1781 112.451 71.0225 113.007 68.0652L87.4541 63.263ZM89.1436 60.9451L75.2624 63.3144L79.6369 88.9437L93.5182 86.5744L89.1436 60.9451ZM51.9385 90.7815L51.8646 102.564L77.8641 102.727L77.9379 90.9445L51.9385 90.7815ZM84.5305 102.769L84.5851 94.0755L58.5856 93.9123L58.531 102.606L84.5305 102.769ZM83.8216 94.9747L94.4003 93.1676L90.0223 67.5389L79.4435 69.346L83.8216 94.9747ZM93.794 93.2565C100.386 92.448 106.986 90.0951 112.091 84.7831L93.3428 66.7686C93.4238 66.6843 93.42 66.7398 93.1141 66.8731C92.7601 67.0274 92.0018 67.2815 90.6286 67.4499L93.794 93.2565ZM112.091 84.7825C116.44 80.2561 118.507 74.89 119.559 69.2913L94.0068 64.4887C93.7692 65.7532 93.5336 66.3705 93.4196 66.6195C93.392 66.6798 93.3712 66.7191 93.3588 66.7413C93.3465 66.7633 93.3401 66.7729 93.3397 66.7734C93.3395 66.7737 93.3416 66.7707 93.3449 66.7666C93.3482 66.7626 93.3481 66.763 93.3422 66.7692L112.091 84.7825ZM119.559 69.291L122.597 53.1275L97.0444 48.3254L94.0068 64.4889L119.559 69.291ZM103.442 25.7288L97.8537 24.7996L93.5891 50.4475L99.1776 51.3767L103.442 25.7288ZM123 48.8066C123 37.367 114.727 27.6051 103.442 25.7288L99.1776 51.3767C97.9209 51.1677 96.9996 50.0806 96.9996 48.8066H123ZM122.597 53.1275C122.865 51.7028 123 50.2563 123 48.8066H96.9996C96.9996 48.6452 97.0146 48.4841 97.0444 48.3254L122.597 53.1275ZM90.3329 48.8076C90.3329 48.2343 90.3862 47.6621 90.4922 47.0986L116.045 51.9011C116.236 50.8811 116.333 49.8455 116.333 48.8076H90.3329ZM98.0678 57.9349C93.6047 57.1927 90.3329 53.3319 90.3329 48.8076H116.333C116.333 40.6185 110.411 33.6303 102.333 32.287L98.0678 57.9349ZM70.4719 44.7959C74.7601 50.9752 81.3653 55.1575 88.785 56.3913L93.0499 30.7434C92.5566 30.6614 92.1174 30.3834 91.8323 29.9725L70.4719 44.7959ZM84.5851 94.0755C84.5823 94.5207 84.2605 94.8998 83.8216 94.9747L79.4435 69.346C67.454 71.3941 58.6619 81.7493 58.5856 93.9123L84.5851 94.0755ZM36.7303 85.7803C35.7849 90.59 31.5683 94.0584 26.6666 94.0584V68.0584C19.1423 68.0584 12.6698 73.3826 11.2185 80.7656L36.7303 85.7803ZM73.8099 37.9232C78.4412 44.5977 85.5753 49.115 93.5891 50.4475L97.8537 24.7996C96.7668 24.6189 95.7992 24.0062 95.1711 23.101L73.8099 37.9232ZM68.1975 119C77.1781 119 84.4741 111.75 84.5305 102.769L58.531 102.606C58.5644 97.2911 62.8824 93 68.1975 93V119ZM16.7654 119C24.5713 119 31.2862 113.477 32.7917 105.817L7.27995 100.802C8.17105 96.2691 12.1453 93 16.7654 93V119ZM75.2624 63.3144C61.8557 65.6027 52.0237 77.1812 51.9385 90.7815L77.9379 90.9445C77.9442 89.9538 78.6603 89.1104 79.6369 88.9437L75.2624 63.3144ZM13.4373 94.0584C7.41565 94.0584 2.89271 88.5599 4.05413 82.6513L29.5659 87.6661C31.5623 77.5099 23.7878 68.0584 13.4373 68.0584V94.0584ZM-3 77.7329C-3 86.7492 4.30918 94.0584 13.3255 94.0584V68.0584C18.6686 68.0584 23 72.3899 23 77.7329H-3ZM26.6666 61.4074C28.2643 61.4074 29.9676 62.774 29.8868 64.9097L3.90539 63.9276C3.40893 77.0623 14.062 87.4074 26.6666 87.4074V61.4074ZM51.8646 102.564C51.8078 111.625 59.1369 119 68.1975 119V93C73.56 93 77.8977 97.365 77.8641 102.727L51.8646 102.564ZM0.738962 99.5167C-1.24475 109.608 6.48041 119 16.7654 119V93C22.8526 93 27.4248 98.5585 26.2508 104.531L0.738962 99.5167Z" fill="#EAB344" mask="url(#path-1-inside-1_203_11)"/>
<rect width="32.7223" height="61.7698" rx="15" transform="matrix(0.979824 0.19986 -0.19804 0.980194 24.2334 12.4536)" fill="#E7B143"/>
</svg>
