<svg width="120" height="120" viewBox="0 0 120 120" fill="none" xmlns="http://www.w3.org/2000/svg">
<g id="mdi:donation">
<path id="Vector" d="M79.9999 60C93.7999 60 105 48.8 105 35C105 21.2 93.7999 10 79.9999 10C66.1999 10 54.9999 21.2 54.9999 35C54.9999 48.8 66.1999 60 79.9999 60ZM107.25 88C105.3 86 102.85 85 99.9999 85H64.9999L54.5999 81.35L56.2499 76.65L64.9999 80H78.9999C80.7499 80 82.1499 79.3 83.2999 78.15C84.4499 77 84.9999 75.6 84.9999 74.05C84.9999 71.35 83.6999 69.5 81.0999 68.45L44.7499 55H34.9999V100L69.9999 110L110.15 95C110.2 92.35 109.2 90 107.25 88ZM24.9999 55H4.91992V110H24.9999V55Z" fill="#EBB444"/>
</g>
</svg>
