<svg width="120" height="120" viewBox="0 0 120 120" fill="none" xmlns="http://www.w3.org/2000/svg">
<g id="material-symbols:celebration">
<path id="Vector" d="M10 110L35 40L80 85L10 110ZM72.75 62.75L67.5 57.5L95.5 29.5C98.1667 26.8333 101.375 25.5 105.125 25.5C108.875 25.5 112.083 26.8333 114.75 29.5L117.75 32.5L112.5 37.75L109.5 34.75C108.333 33.5833 106.875 33 105.125 33C103.375 33 101.917 33.5833 100.75 34.75L72.75 62.75ZM52.75 42.75L47.5 37.5L50.5 34.5C51.6667 33.3333 52.25 31.9167 52.25 30.25C52.25 28.5833 51.6667 27.1667 50.5 26L47.25 22.75L52.5 17.5L55.75 20.75C58.4167 23.4167 59.75 26.5833 59.75 30.25C59.75 33.9167 58.4167 37.0833 55.75 39.75L52.75 42.75ZM62.75 52.75L57.5 47.5L75.5 29.5C76.6667 28.3333 77.25 26.875 77.25 25.125C77.25 23.375 76.6667 21.9167 75.5 20.75L67.5 12.75L72.75 7.5L80.75 15.5C83.4167 18.1667 84.75 21.375 84.75 25.125C84.75 28.875 83.4167 32.0833 80.75 34.75L62.75 52.75ZM82.75 72.75L77.5 67.5L85.5 59.5C88.1667 56.8333 91.375 55.5 95.125 55.5C98.875 55.5 102.083 56.8333 104.75 59.5L112.75 67.5L107.5 72.75L99.5 64.75C98.3333 63.5833 96.875 63 95.125 63C93.375 63 91.9167 63.5833 90.75 64.75L82.75 72.75Z" fill="#EBB444"/>
</g>
</svg>
