<svg width="101" height="101" viewBox="0 0 101 101" fill="none" xmlns="http://www.w3.org/2000/svg">
<path id="Vector" d="M46.6154 0C41.9538 0 38.8462 3.10769 38.8462 7.76923V38.8462H7.76923C3.10769 38.8462 0 41.9538 0 46.6154V54.3846C0 59.0462 3.10769 62.1538 7.76923 62.1538H38.8462V93.2308C38.8462 97.8923 41.9538 101 46.6154 101H54.3846C59.0462 101 62.1538 97.8923 62.1538 93.2308V62.1538H93.2308C97.8923 62.1538 101 59.0462 101 54.3846V46.6154C101 41.9538 97.8923 38.8462 93.2308 38.8462H62.1538V7.76923C62.1538 3.10769 59.0462 0 54.3846 0H46.6154Z" fill="#EBB444"/>
</svg>
