<svg width="15" height="22" viewBox="0 0 15 22" fill="none" xmlns="http://www.w3.org/2000/svg">
<g id="Group 21">
<path id="Vector" d="M13.9998 7.97099C14.0079 6.73522 13.7052 5.51969 13.1232 4.45059C12.5412 3.38149 11.7012 2.4978 10.6903 1.89126C9.67941 1.28471 8.5345 0.977422 7.37447 1.00129C6.21442 1.02516 5.08151 1.37932 4.09336 2.027C3.10522 2.67467 2.29786 3.59227 1.75508 4.6845C1.21231 5.77674 0.953917 7.00381 1.00674 8.23833C1.05955 9.47284 1.42166 10.6698 2.05544 11.7049C2.68923 12.7401 3.5716 13.5756 4.61097 14.1249V16.4327C4.61097 16.6367 4.68705 16.8324 4.82249 16.9765C4.95794 17.1208 5.14164 17.2019 5.33319 17.2019H9.66653C9.85806 17.2019 10.0418 17.1208 10.1772 16.9765C10.3127 16.8324 10.3888 16.6367 10.3888 16.4327V14.1249C11.4684 13.5583 12.3785 12.6823 13.0163 11.5951C13.6542 10.508 13.9948 9.25294 13.9998 7.97099Z" stroke="#FFAF0C" stroke-width="2" stroke-linecap="round" stroke-linejoin="round"/>
<path id="Vector_2" d="M4.60938 21H10.3872" stroke="#FFAF0C" stroke-width="2" stroke-linecap="round" stroke-linejoin="round"/>
</g>
</svg>
