<svg width="21" height="20" viewBox="0 0 21 20" fill="none" xmlns="http://www.w3.org/2000/svg">
<g id="Group 20">
<path id="Vector" d="M1.81449 1.00006L2.87372 5.70436L7.56193 4.48592" stroke="#6E4A00" stroke-width="2" stroke-linecap="round" stroke-linejoin="round"/>
<path id="Vector_2" d="M2 10C2 11.78 2.52548 13.5201 3.50996 15.0001C4.49447 16.4802 5.89378 17.6337 7.53093 18.315C9.16809 18.9961 10.9696 19.1744 12.7076 18.827C14.4456 18.4799 16.0421 17.6226 17.2951 16.364C18.548 15.1053 19.4015 13.5016 19.7471 11.7558C20.0929 10.01 19.9154 8.20038 19.2373 6.55585C18.5591 4.91132 17.4108 3.5057 15.9374 2.51677C14.464 1.52785 12.7317 1 10.9596 1C4.79989 1 3.11995 5.62898 3.11995 5.62898" stroke="#6E4A00" stroke-width="2" stroke-linecap="round" stroke-linejoin="round"/>
</g>
</svg>
