<svg width="32" height="32" viewBox="0 0 32 32" fill="none" xmlns="http://www.w3.org/2000/svg">
<path d="M15.9991 17.8667L9.46576 24.4C9.22131 24.6444 8.9102 24.7667 8.53242 24.7667C8.15464 24.7667 7.84353 24.6444 7.59909 24.4C7.35464 24.1556 7.23242 23.8444 7.23242 23.4667C7.23242 23.0889 7.35464 22.7778 7.59909 22.5333L14.1324 16L7.59909 9.46667C7.35464 9.22223 7.23242 8.91112 7.23242 8.53334C7.23242 8.15556 7.35464 7.84445 7.59909 7.6C7.84353 7.35556 8.15464 7.23334 8.53242 7.23334C8.9102 7.23334 9.22131 7.35556 9.46576 7.6L15.9991 14.1333L22.5324 7.6C22.7769 7.35556 23.088 7.23334 23.4658 7.23334C23.8435 7.23334 24.1546 7.35556 24.3991 7.6C24.6435 7.84445 24.7658 8.15556 24.7658 8.53334C24.7658 8.91112 24.6435 9.22223 24.3991 9.46667L17.8658 16L24.3991 22.5333C24.6435 22.7778 24.7658 23.0889 24.7658 23.4667C24.7658 23.8444 24.6435 24.1556 24.3991 24.4C24.1546 24.6444 23.8435 24.7667 23.4658 24.7667C23.088 24.7667 22.7769 24.6444 22.5324 24.4L15.9991 17.8667Z" fill="black"/>
</svg>
