<svg width="25" height="25" viewBox="0 0 25 25" fill="none" xmlns="http://www.w3.org/2000/svg">
<g id="pet_supplies_FILL1_wght400_GRAD0_opsz24 1">
<path id="Vector" d="M10 22.9205C9.01667 22.9205 8.1875 22.583 7.5125 21.908C6.8375 21.233 6.5 20.4039 6.5 19.4205C6.5 19.2705 6.52083 19.1539 6.5625 19.0705C6.60417 18.9872 6.6 18.9205 6.55 18.8705C6.5 18.8205 6.43333 18.8164 6.35 18.858C6.26667 18.8997 6.15 18.9205 6 18.9205C5.01667 18.9205 4.1875 18.583 3.5125 17.908C2.8375 17.233 2.5 16.4039 2.5 15.4205C2.5 14.4372 2.8375 13.608 3.5125 12.933C4.1875 12.258 5.01667 11.9205 6 11.9205C6.38333 11.9205 6.73333 11.9705 7.05 12.0705C7.36667 12.1705 7.66667 12.3205 7.95 12.5205L12.1 8.37053C11.9 8.0872 11.75 7.7872 11.65 7.47053C11.55 7.15387 11.5 6.80387 11.5 6.42053C11.5 5.4372 11.8375 4.60803 12.5125 3.93303C13.1875 3.25803 14.0167 2.92053 15 2.92053C15.9833 2.92053 16.8125 3.25803 17.4875 3.93303C18.1625 4.60803 18.5 5.4372 18.5 6.42053C18.5 6.57053 18.4792 6.6872 18.4375 6.77053C18.3958 6.85387 18.4 6.92053 18.45 6.97053C18.5 7.02053 18.5667 7.0247 18.65 6.98303C18.7333 6.94137 18.85 6.92053 19 6.92053C19.9833 6.92053 20.8125 7.25803 21.4875 7.93303C22.1625 8.60803 22.5 9.4372 22.5 10.4205C22.5 11.4039 22.1625 12.233 21.4875 12.908C20.8125 13.583 19.9833 13.9205 19 13.9205C18.6167 13.9205 18.2667 13.8705 17.95 13.7705C17.6333 13.6705 17.3333 13.5205 17.05 13.3205L12.9 17.4705C13.1 17.7539 13.25 18.0539 13.35 18.3705C13.45 18.6872 13.5 19.0372 13.5 19.4205C13.5 20.4039 13.1625 21.233 12.4875 21.908C11.8125 22.583 10.9833 22.9205 10 22.9205Z" fill="#DB00FF"/>
</g>
</svg>
