<svg width="25" height="25" viewBox="0 0 25 25" fill="none" xmlns="http://www.w3.org/2000/svg">
<g id="pets_FILL1_wght400_GRAD0_opsz24 1">
<path id="Vector" d="M5 12.4827C4.3 12.4827 3.70833 12.241 3.225 11.7577C2.74167 11.2743 2.5 10.6827 2.5 9.98267C2.5 9.28267 2.74167 8.691 3.225 8.20767C3.70833 7.72433 4.3 7.48267 5 7.48267C5.7 7.48267 6.29167 7.72433 6.775 8.20767C7.25833 8.691 7.5 9.28267 7.5 9.98267C7.5 10.6827 7.25833 11.2743 6.775 11.7577C6.29167 12.241 5.7 12.4827 5 12.4827ZM9.5 8.48267C8.8 8.48267 8.20833 8.241 7.725 7.75767C7.24167 7.27433 7 6.68267 7 5.98267C7 5.28267 7.24167 4.691 7.725 4.20767C8.20833 3.72433 8.8 3.48267 9.5 3.48267C10.2 3.48267 10.7917 3.72433 11.275 4.20767C11.7583 4.691 12 5.28267 12 5.98267C12 6.68267 11.7583 7.27433 11.275 7.75767C10.7917 8.241 10.2 8.48267 9.5 8.48267ZM15.5 8.48267C14.8 8.48267 14.2083 8.241 13.725 7.75767C13.2417 7.27433 13 6.68267 13 5.98267C13 5.28267 13.2417 4.691 13.725 4.20767C14.2083 3.72433 14.8 3.48267 15.5 3.48267C16.2 3.48267 16.7917 3.72433 17.275 4.20767C17.7583 4.691 18 5.28267 18 5.98267C18 6.68267 17.7583 7.27433 17.275 7.75767C16.7917 8.241 16.2 8.48267 15.5 8.48267ZM20 12.4827C19.3 12.4827 18.7083 12.241 18.225 11.7577C17.7417 11.2743 17.5 10.6827 17.5 9.98267C17.5 9.28267 17.7417 8.691 18.225 8.20767C18.7083 7.72433 19.3 7.48267 20 7.48267C20.7 7.48267 21.2917 7.72433 21.775 8.20767C22.2583 8.691 22.5 9.28267 22.5 9.98267C22.5 10.6827 22.2583 11.2743 21.775 11.7577C21.2917 12.241 20.7 12.4827 20 12.4827ZM7.15 22.4827C6.4 22.4827 5.77083 22.1952 5.2625 21.6202C4.75417 21.0452 4.5 20.366 4.5 19.5827C4.5 18.716 4.79583 17.9577 5.3875 17.3077C5.97917 16.6577 6.56667 16.016 7.15 15.3827C7.63333 14.866 8.05 14.3035 8.4 13.6952C8.75 13.0868 9.16667 12.516 9.65 11.9827C10.0167 11.5493 10.4417 11.191 10.925 10.9077C11.4083 10.6243 11.9333 10.4827 12.5 10.4827C13.0667 10.4827 13.5917 10.616 14.075 10.8827C14.5583 11.1493 14.9833 11.4993 15.35 11.9327C15.8167 12.466 16.2292 13.041 16.5875 13.6577C16.9458 14.2743 17.3667 14.8493 17.85 15.3827C18.4333 16.016 19.0208 16.6577 19.6125 17.3077C20.2042 17.9577 20.5 18.716 20.5 19.5827C20.5 20.366 20.2458 21.0452 19.7375 21.6202C19.2292 22.1952 18.6 22.4827 17.85 22.4827C16.95 22.4827 16.0583 22.4077 15.175 22.2577C14.2917 22.1077 13.4 22.0327 12.5 22.0327C11.6 22.0327 10.7083 22.1077 9.825 22.2577C8.94167 22.4077 8.05 22.4827 7.15 22.4827Z" fill="#0029B9"/>
</g>
</svg>
