<svg width="25" height="25" viewBox="0 0 25 25" fill="none" xmlns="http://www.w3.org/2000/svg">
<g id="sentiment_satisfied_FILL1_wght400_GRAD0_opsz24 1">
<path id="Vector" d="M12.5 17.5144C13.3833 17.5144 14.2208 17.3227 15.0125 16.9394C15.8042 16.5561 16.4417 15.9977 16.925 15.2644C17.1083 14.9811 17.1333 14.7019 17 14.4269C16.8667 14.1519 16.65 14.0144 16.35 14.0144C16.2167 14.0144 16.0958 14.0436 15.9875 14.1019C15.8792 14.1602 15.7917 14.2477 15.725 14.3644C15.3417 14.8811 14.8667 15.2852 14.3 15.5769C13.7333 15.8686 13.1333 16.0144 12.5 16.0144C11.8667 16.0144 11.2667 15.8686 10.7 15.5769C10.1333 15.2852 9.65833 14.8811 9.275 14.3644C9.19167 14.2477 9.09583 14.1602 8.9875 14.1019C8.87917 14.0436 8.75833 14.0144 8.625 14.0144C8.325 14.0144 8.10833 14.1477 7.975 14.4144C7.84167 14.6811 7.86667 14.9477 8.05 15.2144C8.53333 15.9644 9.17083 16.5352 9.9625 16.9269C10.7542 17.3186 11.6 17.5144 12.5 17.5144ZM16 11.0144C16.4167 11.0144 16.7708 10.8686 17.0625 10.5769C17.3542 10.2852 17.5 9.93107 17.5 9.5144C17.5 9.09774 17.3542 8.74357 17.0625 8.4519C16.7708 8.16024 16.4167 8.0144 16 8.0144C15.5833 8.0144 15.2292 8.16024 14.9375 8.4519C14.6458 8.74357 14.5 9.09774 14.5 9.5144C14.5 9.93107 14.6458 10.2852 14.9375 10.5769C15.2292 10.8686 15.5833 11.0144 16 11.0144ZM9 11.0144C9.41667 11.0144 9.77083 10.8686 10.0625 10.5769C10.3542 10.2852 10.5 9.93107 10.5 9.5144C10.5 9.09774 10.3542 8.74357 10.0625 8.4519C9.77083 8.16024 9.41667 8.0144 9 8.0144C8.58333 8.0144 8.22917 8.16024 7.9375 8.4519C7.64583 8.74357 7.5 9.09774 7.5 9.5144C7.5 9.93107 7.64583 10.2852 7.9375 10.5769C8.22917 10.8686 8.58333 11.0144 9 11.0144ZM12.5 22.0144C11.1167 22.0144 9.81667 21.7519 8.6 21.2269C7.38333 20.7019 6.325 19.9894 5.425 19.0894C4.525 18.1894 3.8125 17.1311 3.2875 15.9144C2.7625 14.6977 2.5 13.3977 2.5 12.0144C2.5 10.6311 2.7625 9.33107 3.2875 8.1144C3.8125 6.89774 4.525 5.8394 5.425 4.9394C6.325 4.0394 7.38333 3.3269 8.6 2.8019C9.81667 2.2769 11.1167 2.0144 12.5 2.0144C13.8833 2.0144 15.1833 2.2769 16.4 2.8019C17.6167 3.3269 18.675 4.0394 19.575 4.9394C20.475 5.8394 21.1875 6.89774 21.7125 8.1144C22.2375 9.33107 22.5 10.6311 22.5 12.0144C22.5 13.3977 22.2375 14.6977 21.7125 15.9144C21.1875 17.1311 20.475 18.1894 19.575 19.0894C18.675 19.9894 17.6167 20.7019 16.4 21.2269C15.1833 21.7519 13.8833 22.0144 12.5 22.0144Z" fill="#FFAF0C"/>
</g>
</svg>
