<svg width="25" height="25" viewBox="0 0 25 25" fill="none" xmlns="http://www.w3.org/2000/svg">
<g id="favorite_FILL1_wght400_GRAD0_opsz24 2">
<path id="Vector" d="M12.5 20.5111C12.2667 20.5111 12.0292 20.4694 11.7875 20.3861C11.5458 20.3027 11.3333 20.1694 11.15 19.9861L9.425 18.4111C7.65833 16.7944 6.0625 15.1902 4.6375 13.5986C3.2125 12.0069 2.5 10.2527 2.5 8.33606C2.5 6.76939 3.025 5.46106 4.075 4.41106C5.125 3.36106 6.43333 2.83606 8 2.83606C8.88333 2.83606 9.71667 3.02356 10.5 3.39856C11.2833 3.77356 11.95 4.28606 12.5 4.93606C13.05 4.28606 13.7167 3.77356 14.5 3.39856C15.2833 3.02356 16.1167 2.83606 17 2.83606C18.5667 2.83606 19.875 3.36106 20.925 4.41106C21.975 5.46106 22.5 6.76939 22.5 8.33606C22.5 10.2527 21.7917 12.0111 20.375 13.6111C18.9583 15.2111 17.35 16.8194 15.55 18.4361L13.85 19.9861C13.6667 20.1694 13.4542 20.3027 13.2125 20.3861C12.9708 20.4694 12.7333 20.5111 12.5 20.5111Z" fill="#FF0000"/>
</g>
</svg>
