<svg width="25" height="25" viewBox="0 0 25 25" fill="none" xmlns="http://www.w3.org/2000/svg">
<g id="sound_detection_dog_barking_FILL1_wght400_GRAD0_opsz24 1">
<path id="Vector" d="M5.35 22.8428V16.0678L10.275 20.9928C11.175 20.0928 11.9792 19.1219 12.6875 18.0803C13.3958 17.0386 13.75 15.8844 13.75 14.6178C13.75 13.6844 13.5667 12.7886 13.2 11.9303C12.8333 11.0719 12.325 10.3178 11.675 9.66777L8.85 6.84277H12.35L16.35 2.84277L18.4 4.89277C19.0667 5.55944 19.5833 6.31361 19.95 7.15527C20.3167 7.99694 20.5 8.89277 20.5 9.84277C20.5 10.7928 20.3167 11.6886 19.95 12.5303C19.5833 13.3719 19.0667 14.1261 18.4 14.7928L16.35 16.8428V22.8428H5.35ZM10.275 18.1678L5.075 12.9678C4.89167 12.7844 4.75 12.5678 4.65 12.3178C4.55 12.0678 4.5 11.8094 4.5 11.5428C4.5 11.2761 4.55 11.0219 4.65 10.7803C4.75 10.5386 4.89167 10.3261 5.075 10.1428L7.175 8.01777L10.275 11.0928C10.7417 11.5594 11.1042 12.0969 11.3625 12.7053C11.6208 13.3136 11.75 13.9511 11.75 14.6178C11.75 15.2844 11.625 15.9219 11.375 16.5303C11.125 17.1386 10.7583 17.6844 10.275 18.1678Z" fill="#684600"/>
</g>
</svg>
