<svg width="29" height="29" viewBox="0 0 29 29" fill="none" xmlns="http://www.w3.org/2000/svg">
<g id="shower_FILL1_wght400_GRAD0_opsz24 (1) 1">
<path id="Vector" d="M9.83301 21.5293C9.50245 21.5293 9.22537 21.4175 9.00176 21.1939C8.77815 20.9703 8.66634 20.6932 8.66634 20.3626C8.66634 20.0321 8.77815 19.755 9.00176 19.5314C9.22537 19.3078 9.50245 19.196 9.83301 19.196C10.1636 19.196 10.4406 19.3078 10.6643 19.5314C10.8879 19.755 10.9997 20.0321 10.9997 20.3626C10.9997 20.6932 10.8879 20.9703 10.6643 21.1939C10.4406 21.4175 10.1636 21.5293 9.83301 21.5293ZM14.4997 21.5293C14.1691 21.5293 13.892 21.4175 13.6684 21.1939C13.4448 20.9703 13.333 20.6932 13.333 20.3626C13.333 20.0321 13.4448 19.755 13.6684 19.5314C13.892 19.3078 14.1691 19.196 14.4997 19.196C14.8302 19.196 15.1073 19.3078 15.3309 19.5314C15.5545 19.755 15.6663 20.0321 15.6663 20.3626C15.6663 20.6932 15.5545 20.9703 15.3309 21.1939C15.1073 21.4175 14.8302 21.5293 14.4997 21.5293ZM19.1663 21.5293C18.8358 21.5293 18.5587 21.4175 18.3351 21.1939C18.1115 20.9703 17.9997 20.6932 17.9997 20.3626C17.9997 20.0321 18.1115 19.755 18.3351 19.5314C18.5587 19.3078 18.8358 19.196 19.1663 19.196C19.4969 19.196 19.774 19.3078 19.9976 19.5314C20.2212 19.755 20.333 20.0321 20.333 20.3626C20.333 20.6932 20.2212 20.9703 19.9976 21.1939C19.774 21.4175 19.4969 21.5293 19.1663 21.5293ZM7.49967 16.8626C7.16912 16.8626 6.89204 16.7508 6.66842 16.5272C6.44481 16.3036 6.33301 16.0265 6.33301 15.696V14.5293C6.33301 12.4682 6.99412 10.6793 8.31634 9.16263C9.63856 7.64596 11.3108 6.75152 13.333 6.4793V5.19596C13.333 4.86541 13.4448 4.58832 13.6684 4.36471C13.892 4.1411 14.1691 4.0293 14.4997 4.0293C14.8302 4.0293 15.1073 4.1411 15.3309 4.36471C15.5545 4.58832 15.6663 4.86541 15.6663 5.19596V6.4793C17.6886 6.75152 19.3608 7.64596 20.683 9.16263C22.0052 10.6793 22.6663 12.4682 22.6663 14.5293V15.696C22.6663 16.0265 22.5545 16.3036 22.3309 16.5272C22.1073 16.7508 21.8302 16.8626 21.4997 16.8626H7.49967ZM9.83301 25.0293C9.50245 25.0293 9.22537 24.9175 9.00176 24.6939C8.77815 24.4703 8.66634 24.1932 8.66634 23.8626C8.66634 23.5321 8.77815 23.255 9.00176 23.0314C9.22537 22.8078 9.50245 22.696 9.83301 22.696C10.1636 22.696 10.4406 22.8078 10.6643 23.0314C10.8879 23.255 10.9997 23.5321 10.9997 23.8626C10.9997 24.1932 10.8879 24.4703 10.6643 24.6939C10.4406 24.9175 10.1636 25.0293 9.83301 25.0293ZM14.4997 25.0293C14.1691 25.0293 13.892 24.9175 13.6684 24.6939C13.4448 24.4703 13.333 24.1932 13.333 23.8626C13.333 23.5321 13.4448 23.255 13.6684 23.0314C13.892 22.8078 14.1691 22.696 14.4997 22.696C14.8302 22.696 15.1073 22.8078 15.3309 23.0314C15.5545 23.255 15.6663 23.5321 15.6663 23.8626C15.6663 24.1932 15.5545 24.4703 15.3309 24.6939C15.1073 24.9175 14.8302 25.0293 14.4997 25.0293ZM19.1663 25.0293C18.8358 25.0293 18.5587 24.9175 18.3351 24.6939C18.1115 24.4703 17.9997 24.1932 17.9997 23.8626C17.9997 23.5321 18.1115 23.255 18.3351 23.0314C18.5587 22.8078 18.8358 22.696 19.1663 22.696C19.4969 22.696 19.774 22.8078 19.9976 23.0314C20.2212 23.255 20.333 23.5321 20.333 23.8626C20.333 24.1932 20.2212 24.4703 19.9976 24.6939C19.774 24.9175 19.4969 25.0293 19.1663 25.0293Z" fill="#007DA5"/>
</g>
</svg>
