<svg width="25" height="25" viewBox="0 0 25 25" fill="none" xmlns="http://www.w3.org/2000/svg">
<g id="favorite_FILL1_wght400_GRAD0_opsz24 2">
<path id="Vector" d="M12.5 20.7605C12.2667 20.7605 12.0292 20.7188 11.7875 20.6355C11.5458 20.5521 11.3333 20.4188 11.15 20.2355L9.425 18.6605C7.65833 17.0438 6.0625 15.4396 4.6375 13.8479C3.2125 12.2563 2.5 10.5021 2.5 8.58545C2.5 7.01878 3.025 5.71045 4.075 4.66045C5.125 3.61045 6.43333 3.08545 8 3.08545C8.88333 3.08545 9.71667 3.27295 10.5 3.64795C11.2833 4.02295 11.95 4.53545 12.5 5.18545C13.05 4.53545 13.7167 4.02295 14.5 3.64795C15.2833 3.27295 16.1167 3.08545 17 3.08545C18.5667 3.08545 19.875 3.61045 20.925 4.66045C21.975 5.71045 22.5 7.01878 22.5 8.58545C22.5 10.5021 21.7917 12.2605 20.375 13.8604C18.9583 15.4605 17.35 17.0688 15.55 18.6855L13.85 20.2355C13.6667 20.4188 13.4542 20.5521 13.2125 20.6355C12.9708 20.7188 12.7333 20.7605 12.5 20.7605Z" fill="#FF0000"/>
</g>
</svg>
